<?xml version="1.0" encoding="UTF-8"?>
<svg width="584px" height="152px" viewBox="0 0 584 152" version="1.1" xmlns="http://www.w3.org/2000/svg" xmlns:xlink="http://www.w3.org/1999/xlink">
    <!-- Generator: Sketch 53 (72520) - https://sketchapp.com -->
    <title>Group</title>
    <desc>Created with Sketch.</desc>
    <defs>
        <filter x="-4.8%" y="-9.6%" width="107.7%" height="119.3%" filterUnits="objectBoundingBox" id="filter-1">
            <feOffset dx="0" dy="0" in="SourceAlpha" result="shadowOffsetOuter1"></feOffset>
            <feGaussianBlur stdDeviation="4" in="shadowOffsetOuter1" result="shadowBlurOuter1"></feGaussianBlur>
            <feColorMatrix values="0 0 0 0 0   0 0 0 0 0   0 0 0 0 0  0 0 0 0.28745083 0" type="matrix" in="shadowBlurOuter1" result="shadowMatrixOuter1"></feColorMatrix>
            <feMerge>
                <feMergeNode in="shadowMatrixOuter1"></feMergeNode>
                <feMergeNode in="SourceGraphic"></feMergeNode>
            </feMerge>
        </filter>
    </defs>
    <g id="Page-2" stroke="none" stroke-width="1" fill="none" fill-rule="evenodd">
        <g id="Group" filter="url(#filter-1)" transform="translate(18.000000, 8.000000)">
            <path d="M557.988598,45.7444337 C557.989738,45.7076476 558,45.6747338 558,45.6379477 C558,43.4501452 555.91114,41.6766699 553.334271,41.6766699 L552.043556,41.6766699 C550.373152,41.6766699 548.919387,42.4269119 548.095017,43.5469506 L542.331268,43.5469506 C542.633423,39.1945789 542.798753,35.785092 542.879708,33.7783156 L546.206834,33.7783156 C546.206834,33.7783156 549.120064,15.1713456 458.93421,14.3872217 C461.114287,12.9070668 462.515602,10.6331075 462.515602,8.07841239 C462.515602,3.61665053 458.255787,0 453.00057,0 C447.745354,0 443.485538,3.61665053 443.485538,8.07841239 C443.485538,10.6331075 444.885713,12.9070668 447.06693,14.3872217 C356.882217,15.1713456 359.794307,33.7783156 359.794307,33.7783156 L363.121432,33.7783156 C363.202387,35.785092 363.366577,39.1945789 363.671012,43.5469506 L357.906123,43.5469506 C357.081753,42.4269119 355.627988,41.6766699 353.957584,41.6766699 L352.666869,41.6766699 C350.09,41.6766699 348,43.4501452 348,45.6379477 C348,45.6747338 348.012542,45.7076476 348.013682,45.7444337 C348.011402,45.7802517 348,45.8151016 348,45.8509197 C348,46.0474347 348.038767,46.2362052 348.093497,46.4181994 C348.519935,48.232333 350.404698,49.6001936 352.666869,49.6001936 L353.957584,49.6001936 C355.403367,49.6001936 356.678119,49.0300097 357.534415,48.1548887 L364.018775,48.1548887 C365.795219,69.9235237 370.666185,107.050339 383.60298,119.326234 C383.60298,119.326234 391.7338,124 453.00057,124 C514.267341,124 522.39816,119.326234 522.39816,119.326234 C535.336095,107.050339 540.207062,69.9235237 541.982365,48.1548887 L548.467865,48.1548887 C549.324161,49.0300097 550.598913,49.6001936 552.043556,49.6001936 L553.334271,49.6001936 C555.597583,49.6001936 557.481206,48.232333 557.907643,46.4181994 C557.962373,46.2362052 558,46.0474347 558,45.8509197 C558,45.8151016 557.989738,45.7802517 557.988598,45.7444337" id="Fill-37" fill="#2FBAAE"></path>
            <path d="M369,34.0005615 C369,34.0005615 371.656857,33.9298147 376.304928,33.8062886 C380.953,33.7254351 387.593429,33.5300393 395.562857,33.4390792 C403.531143,33.3469961 412.828428,33.2380685 422.789071,33.1212802 C427.769393,33.0932061 432.915269,33.0651319 438.145634,33.0348119 C443.374857,33.0224593 448.687429,33.0123526 454,33 C459.312571,33.0112296 464.624001,33.0224593 469.854366,33.0336889 C475.08359,33.062886 480.229465,33.0909601 485.210929,33.1179113 C495.171572,33.1785514 504.467715,33.348119 512.437143,33.4368332 C520.405429,33.5266704 527.045858,33.7243122 531.695072,33.8051656 C536.343143,33.9286917 539,34.0005615 539,34.0005615 C539,34.0005615 536.343143,34.0713083 531.695072,34.1948344 C527.045858,34.2756878 520.405429,34.4733296 512.437143,34.5631668 C504.467715,34.651881 495.171572,34.8214486 485.210929,34.8820887 C480.229465,34.9090399 475.08359,34.937114 469.854366,34.9663111 C464.624001,34.9775407 459.312571,34.9887704 454,35 C448.687429,34.9876474 443.374857,34.9775407 438.145634,34.9651881 C432.915269,34.935991 427.769393,34.9067939 422.789071,34.8787198 C412.828428,34.7619315 403.531143,34.6541269 395.562857,34.5620438 C387.593429,34.4699607 380.953,34.2745649 376.304928,34.1937114 C371.656857,34.0701853 369,34.0005615 369,34.0005615" id="Fill-38" fill="#BDD2C5"></path>
            <text id="CHEF" font-family="GlossAndBloom, Gloss And Bloom" font-size="50.68" font-weight="normal" letter-spacing="9.99999902e-05" fill="#FFFFFF">
                <tspan x="377" y="96">CHEF</tspan>
            </text>
            <text id="Bharatiya" font-family="GlossAndBloom, Gloss And Bloom" font-size="69" font-weight="normal" letter-spacing="0.0001510531" fill="#2FBAAE">
                <tspan x="0" y="108">Bharatiya</tspan>
            </text>
        </g>
    </g>
</svg>